<?xml version="1.0" encoding="UTF-8"?>
<!DOCTYPE svg PUBLIC "-//W3C//DTD SVG 1.1//EN" "http://www.w3.org/Graphics/SVG/1.1/DTD/svg11.dtd">
<!-- Creator: CorelDRAW 2018 (64 Bit Versão de avaliação) -->
<svg xmlns="http://www.w3.org/2000/svg" xml:space="preserve" width="5.9142mm" height="5.9324mm" version="1.1" style="shape-rendering:geometricPrecision; text-rendering:geometricPrecision; image-rendering:optimizeQuality; fill-rule:evenodd; clip-rule:evenodd"
viewBox="0 0 23.7 23.77"
 xmlns:xlink="http://www.w3.org/1999/xlink">
 <defs>
  <style type="text/css">
   <![CDATA[
    .fil0 {fill:#0C3827}
   ]]>
  </style>
 </defs>
 <g id="Camada_x0020_1">
  <metadata id="CorelCorpID_0Corel-Layer"/>
  <path class="fil0" d="M23.49 23.57c-2.75,0.36 -8.65,0.14 -11.66,0.07 -3.65,-0.09 -6.06,-1.31 -8.41,-3.57 -4.77,-4.59 -4.36,-12.45 0.1,-16.72 4.78,-4.58 12.03,-4.39 16.65,0.18 1.83,1.81 3.4,4.7 3.43,8.33 0.02,2.01 0.27,10.45 -0.11,11.71zm-3.63 -3.64c-1.89,0.25 -5.95,0.1 -8.02,0.05 -2.52,-0.06 -4.17,-0.9 -5.79,-2.46 -3.28,-3.16 -3,-8.57 0.07,-11.51 3.29,-3.15 8.28,-3.02 11.46,0.13 1.26,1.25 2.34,3.23 2.36,5.73 0.01,1.38 0.18,7.19 -0.08,8.06z"/>
 </g>
</svg>
